<?xml version="1.0" encoding="iso-8859-1"?>
<!-- Generator: Adobe Illustrator 19.2.1, SVG Export Plug-In . SVG Version: 6.00 Build 0)  -->
<svg version="1.1" id="Lag_1" xmlns="http://www.w3.org/2000/svg" xmlns:xlink="http://www.w3.org/1999/xlink" x="0px" y="0px"
	 viewBox="0 0 328.9 163.1" style="enable-background:new 0 0 328.9 163.1;" xml:space="preserve">
<g style="opacity:0.8;">
	<linearGradient id="SVGID_1_" gradientUnits="userSpaceOnUse" x1="242.0296" y1="65.0294" x2="282.9954" y2="65.0294">
		<stop  offset="0" style="stop-color:#231F20"/>
		<stop  offset="1" style="stop-color:#363636"/>
	</linearGradient>
	<path style="fill:url(#SVGID_1_);" d="M280.3,95.3l-24.8-18.6V29.4c0-3.7-3-6.7-6.7-6.7c-3.7,0-6.7,3-6.7,6.7v50.7
		c0,1.7,0.7,3.3,1.7,4.5c0,0,0.1,0.1,0.1,0.1c0.2,0.3,0.5,0.5,0.8,0.7c0.1,0,0.1,0.1,0.2,0.2l27.4,20.5c3,2.2,7.2,1.6,9.4-1.4
		C283.9,101.8,283.3,97.5,280.3,95.3z"/>
	<linearGradient id="SVGID_2_" gradientUnits="userSpaceOnUse" x1="32.5454" y1="92.9162" x2="32.5454" y2="22.1259">
		<stop  offset="0" style="stop-color:#231F20"/>
		<stop  offset="1" style="stop-color:#363636"/>
	</linearGradient>
	<path style="fill:url(#SVGID_2_);" d="M51.3,92.9h-4.8L20.8,47.8L13,92H0.7l12.8-69.8h5.7l25.2,43.3l7.6-43.3h12.3L51.3,92.9z"/>
	<linearGradient id="SVGID_3_" gradientUnits="userSpaceOnUse" x1="91.0131" y1="92.9162" x2="91.0131" y2="39.9542">
		<stop  offset="0" style="stop-color:#231F20"/>
		<stop  offset="1" style="stop-color:#363636"/>
	</linearGradient>
	<path style="fill:url(#SVGID_3_);" d="M79.1,69.8C79,70.6,79,71.3,79,71.9c0,3.6,1.1,6.3,3.2,8.2c2.1,1.9,5,2.9,8.8,2.9
		c2,0,4.3-0.5,6.9-1.6c2.6-1.1,4.7-2.3,6.2-3.7l-1.4,12.5c-4,1.8-9,2.7-14.8,2.7c-6.3,0-11.4-2-15.3-6c-3.9-4-5.9-9.4-5.9-16.4
		c0-8.8,2.8-16.1,8.5-21.9c5.6-5.8,13-8.7,22.1-8.7c5.4,0,9.7,1.1,13.1,3.4c3.3,2.3,5,5.5,5,9.7c0,5.8-2.5,10.3-7.5,13.5
		c-5,3.3-11.1,4.9-18.4,4.9C86,71.6,82.5,71,79.1,69.8z M81.4,60.8c2.1,0.6,4.3,0.9,6.7,0.9c4.3,0,8-0.7,11-2c3-1.3,4.5-3.2,4.5-5.7
		c0-2.8-3-4.1-9.1-4.1c-2.4,0-4.8,1-7.3,3.1C84.7,55.1,82.8,57.7,81.4,60.8z"/>
	<linearGradient id="SVGID_4_" gradientUnits="userSpaceOnUse" x1="156.8225" y1="91.9635" x2="156.8225" y2="39.8118">
		<stop  offset="0" style="stop-color:#231F20"/>
		<stop  offset="1" style="stop-color:#363636"/>
	</linearGradient>
	<path style="fill:url(#SVGID_4_);" d="M195.2,58.5L189,92h-12.2l6.1-32.2c0.2-1,0.3-2.1,0.3-3.2c0-4.4-2.3-6.6-7-6.6
		c-1.7,0-3.4,0.6-5.4,1.7c-1.9,1.1-3.4,2.4-4.3,3.7L159.6,92h-12.2l6.8-36c0.1-0.3,0.1-0.7,0.1-1.1c0-3.3-2.5-5-7.6-5
		c-1.5,0-3.3,0.6-5.2,1.7c-1.9,1.1-3.5,2.4-4.6,3.9L130.1,92h-12.2l6.9-36.9c0.2-0.9,0.2-2.2,0.2-4c0-3.1-0.4-6.2-1.3-9.2l11.7-2
		c0.4,1.6,0.8,3.2,1,4.6c3.8-3,8.6-4.5,14.4-4.5c6.7,0,11.5,1.8,14.3,5.5c4-3.7,9.1-5.5,15.3-5.5c10.2,0,15.3,4.6,15.3,13.9
		C195.7,55.2,195.6,56.8,195.2,58.5z"/>
	<path style="fill:#231F20;" d="M12.6,106.3v19.8H8.5v-19.8H1v-3.7h19.5v3.7H12.6z"/>
	<path style="fill:#231F20;" d="M33.2,126.1v-23.5h4.2v23.5H33.2z"/>
	<path style="fill:#231F20;" d="M52.1,126.1v-23.5h4.2v19.8h10.6v3.7H52.1z"/>
	<path style="fill:#231F20;" d="M102.1,126.1h-4.1l-2.4-12.7l-4.7,13h-1.5l-4.7-13l-2.5,12.7h-4l4.7-23.6h2.2l5.1,15.9l5-15.9h2.2
		L102.1,126.1z"/>
	<path style="fill:#231F20;" d="M118.8,106.3v5.5h7.8v3.6h-7.8v7.1h10.7v3.7h-14.9v-23.5h15v3.7H118.8z"/>
	<path style="fill:#231F20;" d="M143.2,126.1v-23.5h4.2v19.8H158v3.7H143.2z"/>
	<path style="fill:#231F20;" d="M176.5,126.1h-5.2v-23.5c3.3-0.1,5.4-0.2,6.3-0.2c3.4,0,6.1,1,8.2,3c2,2,3,4.7,3,8
		C188.7,121.9,184.6,126.1,176.5,126.1z M175.4,106.2v16.1c0.7,0.1,1.4,0.1,2.2,0.1c2.1,0,3.8-0.8,5-2.3c1.2-1.5,1.8-3.7,1.8-6.4
		c0-5-2.3-7.6-7-7.6C176.9,106.1,176.3,106.1,175.4,106.2z"/>
	<g>
		<linearGradient id="SVGID_5_" gradientUnits="userSpaceOnUse" x1="182.6063" y1="81.3162" x2="328.8648" y2="81.3162">
			<stop  offset="0" style="stop-color:#231F20"/>
			<stop  offset="1" style="stop-color:#363636"/>
		</linearGradient>
		<path style="fill:url(#SVGID_5_);" d="M248.1,0.5c-26.9,0-50.8,13.2-65.5,33.4c0.3,0,0.5,0,0.8,0c6.8,0,11.4,2.1,13.6,6.3
			c12-14.9,30.4-24.4,51-24.4c36.2,0,65.5,29.3,65.5,65.5c0,36.2-29.3,65.5-65.5,65.5c-22.5,0-42.3-11.3-54.1-28.6
			c-0.2,7.3-3.7,11.2-10.3,11.8c14.8,19.5,38.1,32.1,64.5,32.1c44.6,0,80.8-36.2,80.8-80.8C328.9,36.7,292.7,0.5,248.1,0.5z"/>
	</g>
</g>
</svg>
