<svg xmlns="http://www.w3.org/2000/svg" viewBox="0 0 318.601 62.593" height="62.593" width="318.601" xml:space="preserve" version="1.1">
  <path fill="#fff" fill-opacity="1" fill-rule="nonzero" stroke="none" d="M280.048 62.592a4.66 4.66 0 0 1-1.852-.394c-3.21-1.452-6.08-2.932-8.63-4.44-2.946-1.747-5.223-3.424-5.32-3.493-5.765-4.134-10.262-8.812-13.32-13.874-2.124-3.417-3.422-7.365-3.475-7.532-3.55-10.412 1.565-21.684 11.662-25.606 5.482-2.126 11.748-1.566 16.952 1.48l.096.057c.16.1.84.533 1.734 1.197 4.312-6.13 11.296-9.986 18.682-9.986a21.28 21.28 0 0 0 7.73 1.446c5.589 2.156 9.994 6.444 12.406 12.07 2.416 5.636 2.515 11.926.278 17.713 0 0-.558 1.445-.755 1.908-.224.565-1.47 3.56-4.039 7.404-6.128 8.677-16.292 15.926-30.266 21.634a4.6 4.6 0 0 0-1.883.416"/>
  <path fill="#df0921" fill-opacity="1" fill-rule="nonzero" stroke="none" d="M272.557 49.783l-.968 4.95c2.391 1.413 5.107 2.818 8.156 4.198.083.036.18.08.303.08a.674.674 0 0 0 .267-.073c16.333-6.65 24.406-14.308 28.574-20.207H274.7zm1.498-37.217c-4.066-2.38-8.947-2.97-13.502-1.204-7.969 3.096-12.2 12.208-9.318 20.664h19.086l2.43-12.685zm28.816-7.01c-9.36-3.627-20.016 1.4-23.95 11.223l-1.089 5.63-1.847 9.617h36.568c.323-.752.56-1.448.727-1.832 3.867-10.01-.995-21.003-10.41-24.637M266.61 51.46l.88-4.751 1.547-7.979h-14.706c2.142 3.544 5.818 8.098 12.28 12.73"/>
  <path fill="#010101" fill-opacity="1" fill-rule="nonzero" opacity=".2" stroke="none" d="M263.555 20.158c2.912-1.592 6.28-1.773 9.194-.817l1.307-6.775c-4.067-2.38-8.947-2.97-13.503-1.204-7.969 3.096-12.2 12.21-9.318 20.664h6.164c-.456-4.756 1.88-9.51 6.156-11.868m-3.686 18.573h-5.54c2.142 3.544 5.82 8.098 12.28 12.73l.88-4.751c-4.237-3.05-6.466-6.004-7.62-7.979m23.174 15.038a.701.701 0 0 0-.203.07.441.441 0 0 0-.204-.037c-3.973-1.207-7.332-2.577-10.08-4.019l-.967 4.95c2.391 1.413 5.107 2.818 8.155 4.2.084.033.181.08.304.08a.703.703 0 0 0 .267-.075c16.333-6.65 24.406-14.307 28.574-20.207h-8.249c-2.996 4.407-8.237 9.69-17.597 15.038M302.87 5.557c-9.36-3.628-20.018 1.398-23.95 11.222l-1.089 5.63c1.965-7.74 9.445-12.546 16.787-10.76 7.389 1.782 12.13 9.509 10.21 17.266-.141.682-.345 1.712-.8 3.11h8.524c.323-.751.56-1.447.727-1.831 3.867-10.01-.995-21.003-10.41-24.637" />
  <path fill="#182846" fill-opacity="1" fill-rule="nonzero" stroke="none" d="M25.002 26.6L14.685 50.282h-4.332L-.001 26.6H4.77l7.883 18.27 7.952-18.27zm3.89 23.683h4.229V32.217h-4.23zm.135-21.958c-.473-.507-.71-1.083-.71-1.726 0-1.59 1.353-2.402 2.773-2.402 1.355 0 2.64.812 2.64 2.369 0 .71-.27 1.32-.744 1.759zm10.927 21.62c-1.387-.371-2.503-.88-3.35-1.455l1.625-3.213c1.624 1.082 4.093 1.792 6.293 1.792 2.537 0 3.79-.676 3.79-1.995 0-1.253-1.22-1.592-4.06-2.032-1.49-.236-2.707-.473-3.62-.779-1.897-.573-3.486-1.994-3.486-4.6 0-1.725.71-3.078 2.165-4.128 1.422-1.014 3.35-1.522 5.786-1.522 2.469 0 5.177.609 6.766 1.556l-1.624 3.214c-1.522-.913-3.248-1.353-5.176-1.353-2.47 0-3.789.813-3.789 2.03 0 1.353 1.353 1.726 4.23 2.234 1.453.236 2.638.473 3.551.779 1.862.574 3.384 1.892 3.384 4.465 0 1.69-.746 3.044-2.2 4.06-1.454 1.015-3.45 1.523-5.988 1.523a16.667 16.667 0 0 0-4.297-.576m16.137.338h4.23V32.217h-4.23zm.136-21.958c-.473-.507-.71-1.083-.71-1.726 0-1.59 1.353-2.402 2.773-2.402 1.355 0 2.64.812 2.64 2.369 0 .71-.27 1.32-.744 1.759zM76.73 49.303c-.982.81-2.47 1.218-4.06 1.218-3.959 0-6.226-2.134-6.226-6.09v-8.696h-2.977v-3.382h2.977v-4.13h4.23v4.13h4.838l-.677 3.382h-4.161v8.595c0 1.759.88 2.705 2.504 2.705.946 0 1.725-.237 2.368-.744zm14.04-2.742c5.277 0 8.694-3.214 8.694-8.12 0-4.907-3.417-8.12-8.693-8.12h-5.753v16.24zM80.618 26.599H90.97c7.547-.101 13.027 4.839 12.926 11.84.1 7.006-5.38 11.946-12.926 11.844H80.618zm30.247 13.196h10.249c-.37-2.605-2.367-4.4-5.107-4.4-2.706 0-4.737 1.727-5.144 4.4m14.21 2.807h-14.176c.508 2.675 2.74 4.332 5.854 4.332 1.996 0 3.619-.643 4.904-1.961l2.268 2.604c-1.624 1.929-4.16 2.944-7.274 2.944-5.987 0-9.98-3.894-9.98-9.271-.103-5.244 4.026-9.339 9.337-9.236 5.31 0 9.134 3.755 9.134 9.337 0 .306-.033.71-.066 1.25m21.924-2.671v10.353h-4.23v-9.812c0-3.146-1.558-4.77-4.298-4.77-3.112 0-5.04 1.928-5.04 5.446v9.136h-4.23V32.217h4.026v2.333c1.386-1.657 3.552-2.537 6.226-2.537 4.567 0 7.544 2.672 7.544 7.917m35.591 0v10.353h-4.23v-9.812c0-3.146-1.455-4.77-4.06-4.77-2.84 0-4.7 1.928-4.7 5.413v9.17h-4.23V40.47c0-3.146-1.456-4.77-4.06-4.77-2.876 0-4.703 1.894-4.703 5.413v9.17h-4.229V32.216h4.025v2.3c1.354-1.624 3.451-2.504 5.92-2.504 2.707 0 4.874 1.014 6.091 3.01 1.49-1.893 3.925-3.01 6.767-3.01 4.568 0 7.41 2.64 7.41 7.917m16.304 4.704v-2.099h-4.364c-2.436 0-3.654.812-3.654 2.404 0 1.52 1.286 2.502 3.45 2.502 2.134 0 3.891-1.014 4.568-2.807m4.23-4.94v10.59h-3.992v-2.2c-1.05 1.591-2.978 2.437-5.686 2.437-4.093 0-6.732-2.267-6.732-5.414 0-3.248 2.334-5.38 7.511-5.38h4.67v-.27c0-2.538-1.523-3.924-4.5-3.924-2.03 0-4.129.677-5.48 1.793l-1.66-3.08c1.894-1.455 4.67-2.232 7.647-2.232 5.312 0 8.222 2.537 8.222 7.68m9.437-4.839c1.219-1.894 3.35-2.841 6.43-2.841v4.027a5.353 5.353 0 0 1-.982-.103c-3.281 0-5.245 1.96-5.245 5.583v8.762h-4.23V32.217h4.027zM230.118 42.534l-3.147 2.977v4.774h-4.23V25.178h4.231v15.16l8.76-8.123h5.078l-7.547 7.579 8.257 10.49h-5.144z"/>
</svg>
